<svg width="215" height="49" viewBox="0 0 215 49" fill="none" xmlns="http://www.w3.org/2000/svg">
<g clip-path="url(#clip0)">
<path d="M116.914 48V31.3828C116.914 29.2891 116.438 27.7266 115.484 26.6953C114.531 25.6641 113.039 25.1484 111.008 25.1484C108.305 25.1484 106.328 25.8828 105.078 27.3516C103.844 28.8203 103.227 31.2266 103.227 34.5703V48H99.3359V0H103.227V22.5703C103.227 23.8984 103.164 25 103.039 25.875H103.273C104.039 24.6406 105.125 23.6719 106.531 22.9688C107.953 22.25 109.57 21.8906 111.383 21.8906C114.523 21.8906 116.875 22.6406 118.438 24.1406C120.016 25.625 120.805 27.9922 120.805 31.2422V48H116.914Z" fill="white"/>
<path d="M139.672 48.4688C135.875 48.4688 132.875 47.3125 130.672 45C128.484 42.6875 127.391 39.4766 127.391 35.3672C127.391 31.2266 128.406 27.9375 130.438 25.5C132.484 23.0625 135.227 21.8438 138.664 21.8438C141.883 21.8438 144.43 22.9062 146.305 25.0312C148.18 27.1406 149.117 29.9297 149.117 33.3984V35.8594H131.422C131.5 38.875 132.258 41.1641 133.695 42.7266C135.148 44.2891 137.188 45.0703 139.812 45.0703C142.578 45.0703 145.312 44.4922 148.016 43.3359V46.8047C146.641 47.3984 145.336 47.8203 144.102 48.0703C142.883 48.3359 141.406 48.4688 139.672 48.4688ZM138.617 25.1016C136.555 25.1016 134.906 25.7734 133.672 27.1172C132.453 28.4609 131.734 30.3203 131.516 32.6953H144.945C144.945 30.2422 144.398 28.3672 143.305 27.0703C142.211 25.7578 140.648 25.1016 138.617 25.1016Z" fill="white"/>
<path d="M159.664 48H155.773V0H159.664V48Z" fill="white"/>
<path d="M171.805 48H167.914V0H171.805V48Z" fill="white"/>
<path d="M202.227 35.1328C202.227 39.3203 201.172 42.5938 199.062 44.9531C196.953 47.2969 194.039 48.4688 190.32 48.4688C188.023 48.4688 185.984 47.9297 184.203 46.8516C182.422 45.7734 181.047 44.2266 180.078 42.2109C179.109 40.1953 178.625 37.8359 178.625 35.1328C178.625 30.9453 179.672 27.6875 181.766 25.3594C183.859 23.0156 186.766 21.8438 190.484 21.8438C194.078 21.8438 196.93 23.0391 199.039 25.4297C201.164 27.8203 202.227 31.0547 202.227 35.1328ZM182.656 35.1328C182.656 38.4141 183.312 40.9141 184.625 42.6328C185.938 44.3516 187.867 45.2109 190.414 45.2109C192.961 45.2109 194.891 44.3594 196.203 42.6562C197.531 40.9375 198.195 38.4297 198.195 35.1328C198.195 31.8672 197.531 29.3906 196.203 27.7031C194.891 26 192.945 25.1484 190.367 25.1484C187.82 25.1484 185.898 25.9844 184.602 27.6562C183.305 29.3281 182.656 31.8203 182.656 35.1328Z" fill="white"/>
<path d="M212.586 38.5547H210.125L208 0H214.5L212.586 38.5547ZM208.508 45.5156C208.508 43.3906 209.445 42.3281 211.32 42.3281C212.227 42.3281 212.922 42.6016 213.406 43.1484C213.906 43.6953 214.156 44.4844 214.156 45.5156C214.156 46.5156 213.906 47.2969 213.406 47.8594C212.906 48.4062 212.211 48.6797 211.32 48.6797C210.508 48.6797 209.836 48.4375 209.305 47.9531C208.773 47.4531 208.508 46.6406 208.508 45.5156Z" fill="white"/>
<path fill-rule="evenodd" clip-rule="evenodd" d="M77.991 23.998C76.3997 23.998 74.8736 23.3659 73.7484 22.2406C72.6231 21.1154 71.991 19.5893 71.991 17.998H65.991C65.991 24.625 71.364 29.998 77.991 29.998C84.618 29.998 89.991 24.625 89.991 17.998H83.991C83.9878 19.5906 83.3529 21.1168 82.2255 22.2417C81.0982 23.3666 79.5706 23.9983 77.978 23.998" fill="white"/>
<path fill-rule="evenodd" clip-rule="evenodd" d="M83.997 12C77.37 12 71.997 6.627 71.997 4.80813e-06H65.997C65.997 9.941 74.056 18 83.997 18V12Z" fill="white"/>
<path fill-rule="evenodd" clip-rule="evenodd" d="M83.995 4.80813e-06H89.992L89.991 17.998H83.995V4.80813e-06Z" fill="white"/>
<path fill-rule="evenodd" clip-rule="evenodd" d="M53.997 12C47.37 12 41.997 6.627 41.997 4.80813e-06H35.997C35.997 9.941 44.056 18 53.997 18V12Z" fill="white"/>
<path fill-rule="evenodd" clip-rule="evenodd" d="M47.999 23.998C46.4077 23.998 44.8816 23.3659 43.7564 22.2406C42.6311 21.1154 41.999 19.5893 41.999 17.998H35.999C35.999 24.625 41.372 29.998 47.999 29.998C54.626 29.998 59.999 24.625 59.999 17.998H53.999C53.9932 19.5898 53.3574 21.1145 52.2306 22.2388C51.1039 23.3631 49.5778 23.9956 47.986 23.998" fill="white"/>
<path fill-rule="evenodd" clip-rule="evenodd" d="M24 4.80813e-06V15C24 17.387 23.0518 19.6761 21.364 21.364C19.6761 23.0518 17.3869 24 15 24C12.6131 24 10.3239 23.0518 8.63604 21.364C6.94821 19.6761 6 17.387 6 15H0C0.05 23.102 6.524 29.7 14.624 29.903C22.724 30.106 29.521 23.84 29.976 15.751H29.992V4.80813e-06H24Z" fill="white"/>
<path fill-rule="evenodd" clip-rule="evenodd" d="M14.996 4.80813e-06V6C17.3829 6 19.6721 6.94822 21.36 8.63604C23.0478 10.3239 23.996 12.6131 23.996 15V30H29.996V15C29.9976 13.0297 29.6107 11.0785 28.8574 9.25789C28.1041 7.43729 26.9993 5.78308 25.6061 4.38988C24.2129 2.99669 22.5587 1.89186 20.7381 1.1386C18.9175 0.385336 16.9663 -0.0015733 14.996 4.80813e-06Z" fill="white"/>
<path fill-rule="evenodd" clip-rule="evenodd" d="M0 15H6C6 12.6131 6.94821 10.3239 8.63604 8.63604C10.3239 6.94822 12.6131 6 15 6V4.80813e-06C6.716 4.80813e-06 0 6.716 0 15Z" fill="white"/>
<path fill-rule="evenodd" clip-rule="evenodd" d="M53.995 4.80813e-06H59.992V17.998H53.995V4.80813e-06Z" fill="white"/>
</g>
<defs>
<clipPath id="clip0">
<rect width="215" height="49" fill="white"/>
</clipPath>
</defs>
</svg>
