<svg width="1200" height="250" viewBox="0 0 1200 250" fill="none" xmlns="http://www.w3.org/2000/svg">
<rect width="1200" height="250" fill="url(#paint0_radial)"/>
<path d="M617.841 168.743V138.021C617.841 134.15 616.962 131.261 615.202 129.355C613.442 127.448 610.688 126.495 606.938 126.495C601.947 126.495 598.298 127.853 595.99 130.568C593.712 133.284 592.572 137.732 592.572 143.914V168.743H585.389V80H592.572V121.728C592.572 124.184 592.457 126.221 592.226 127.838H592.659C594.072 125.556 596.077 123.765 598.673 122.465C601.298 121.136 604.284 120.472 607.63 120.472C613.428 120.472 617.769 121.858 620.654 124.632C623.567 127.376 625.024 131.753 625.024 137.761V168.743H617.841Z" fill="white"/>
<path d="M659.856 169.61C652.846 169.61 647.308 167.472 643.24 163.197C639.202 158.922 637.183 152.985 637.183 145.388C637.183 137.732 639.058 131.651 642.808 127.145C646.587 122.638 651.649 120.385 657.995 120.385C663.938 120.385 668.639 122.35 672.101 126.278C675.563 130.178 677.293 135.335 677.293 141.748V146.298H644.625C644.769 151.873 646.168 156.105 648.822 158.994C651.505 161.883 655.269 163.327 660.115 163.327C665.221 163.327 670.269 162.258 675.26 160.12V166.533C672.721 167.631 670.313 168.411 668.034 168.873C665.784 169.364 663.058 169.61 659.856 169.61ZM657.909 126.408C654.101 126.408 651.058 127.65 648.779 130.135C646.529 132.619 645.202 136.057 644.798 140.448H669.591C669.591 135.912 668.582 132.446 666.563 130.048C664.543 127.622 661.659 126.408 657.909 126.408Z" fill="white"/>
<path d="M696.764 168.743H689.582V80H696.764V168.743Z" fill="white"/>
<path d="M719.178 168.743H711.995V80H719.178V168.743Z" fill="white"/>
<path d="M775.341 144.954C775.341 152.696 773.394 158.748 769.5 163.11C765.606 167.443 760.226 169.61 753.361 169.61C749.12 169.61 745.356 168.613 742.067 166.62C738.779 164.627 736.24 161.767 734.452 158.04C732.663 154.314 731.769 149.952 731.769 144.954C731.769 137.212 733.702 131.189 737.567 126.885C741.433 122.552 746.798 120.385 753.663 120.385C760.298 120.385 765.563 122.595 769.457 127.015C773.38 131.435 775.341 137.415 775.341 144.954ZM739.212 144.954C739.212 151.021 740.423 155.643 742.846 158.82C745.269 161.998 748.832 163.587 753.534 163.587C758.236 163.587 761.798 162.013 764.221 158.864C766.673 155.686 767.899 151.05 767.899 144.954C767.899 138.917 766.673 134.338 764.221 131.218C761.798 128.069 758.207 126.495 753.447 126.495C748.745 126.495 745.197 128.04 742.803 131.131C740.409 134.222 739.212 138.83 739.212 144.954Z" fill="white"/>
<path d="M794.466 151.281H789.923L786 80H798L794.466 151.281ZM786.938 164.15C786.938 160.221 788.668 158.257 792.13 158.257C793.803 158.257 795.087 158.763 795.981 159.774C796.904 160.785 797.365 162.244 797.365 164.15C797.365 165.999 796.904 167.443 795.981 168.483C795.058 169.494 793.774 170 792.13 170C790.63 170 789.389 169.552 788.409 168.657C787.428 167.732 786.938 166.23 786.938 164.15Z" fill="white"/>
<path fill-rule="evenodd" clip-rule="evenodd" d="M545.983 124.368C543.046 124.368 540.228 123.199 538.151 121.119C536.073 119.039 534.906 116.217 534.906 113.275H523.83C523.83 125.527 533.749 135.461 545.983 135.461C558.218 135.461 568.137 125.527 568.137 113.275H557.06C557.054 116.219 555.882 119.041 553.801 121.121C551.72 123.201 548.9 124.368 545.959 124.368" fill="white"/>
<path fill-rule="evenodd" clip-rule="evenodd" d="M557.071 102.186C544.837 102.186 534.918 92.2521 534.918 80H523.841C523.841 98.3791 538.719 113.279 557.071 113.279V102.186Z" fill="white"/>
<path fill-rule="evenodd" clip-rule="evenodd" d="M557.068 80H568.139L568.137 113.275H557.068V80Z" fill="white"/>
<path fill-rule="evenodd" clip-rule="evenodd" d="M501.687 102.186C489.452 102.186 479.533 92.2521 479.533 80H468.456C468.456 98.3791 483.334 113.279 501.687 113.279V102.186Z" fill="white"/>
<path fill-rule="evenodd" clip-rule="evenodd" d="M490.614 124.368C487.676 124.368 484.858 123.199 482.781 121.119C480.704 119.039 479.537 116.217 479.537 113.275H468.46C468.46 125.527 478.379 135.461 490.614 135.461C502.848 135.461 512.767 125.527 512.767 113.275H501.69C501.68 116.218 500.506 119.037 498.426 121.116C496.346 123.194 493.528 124.364 490.59 124.368" fill="white"/>
<path fill-rule="evenodd" clip-rule="evenodd" d="M446.308 80V107.732C446.308 112.145 444.557 116.378 441.441 119.498C438.325 122.619 434.099 124.372 429.692 124.372C425.286 124.372 421.059 122.619 417.943 119.498C414.827 116.378 413.077 112.145 413.077 107.732H402C402.092 122.711 414.044 134.91 428.998 135.285C443.952 135.661 456.5 124.076 457.34 109.121H457.37V80H446.308Z" fill="white"/>
<path fill-rule="evenodd" clip-rule="evenodd" d="M429.685 80V91.0929C434.092 91.0929 438.318 92.846 441.434 95.9665C444.55 99.087 446.3 103.319 446.3 107.732V135.465H457.377V107.732C457.38 104.09 456.666 100.482 455.275 97.1162C453.885 93.7502 451.845 90.6919 449.273 88.1161C446.701 85.5403 443.647 83.4977 440.286 82.1051C436.925 80.7124 433.322 79.9971 429.685 80Z" fill="white"/>
<path fill-rule="evenodd" clip-rule="evenodd" d="M402 107.732H413.077C413.077 103.319 414.827 99.087 417.943 95.9665C421.059 92.846 425.286 91.0929 429.692 91.0929V80C414.399 80 402 92.4167 402 107.732Z" fill="white"/>
<path fill-rule="evenodd" clip-rule="evenodd" d="M501.683 80H512.754V113.275H501.683V80Z" fill="white"/>
<defs>
<radialGradient id="paint0_radial" cx="0" cy="0" r="1" gradientUnits="userSpaceOnUse" gradientTransform="translate(600 14.5833) rotate(90) scale(235.417 1130)">
<stop stop-color="#55307F"/>
<stop offset="1" stop-color="#231434"/>
</radialGradient>
</defs>
</svg>
