<svg width="100" height="80" viewBox="0 0 100 80" fill="none" xmlns="http://www.w3.org/2000/svg">
<rect width="100" height="80" rx="6" fill="white" fill-opacity="0.8"/>
<path d="M12.46 34H15.39V26.7H17.84L18.21 23.86H15.39V22.04C15.39 21.22 15.62 20.66 16.8 20.66H18.31V18.11C18.05 18.08 17.16 18 16.12 18C13.94 18 12.46 19.33 12.46 21.76V23.86H10V26.7H12.46V34Z" fill="#EEBC32"/>
<path d="M20.6239 50.1452L18.3604 60.8203C18.1896 61.5737 17.7442 61.7612 17.1114 61.4063L13.6624 58.8647L11.9982 60.4653C11.814 60.6495 11.66 60.8035 11.305 60.8035L11.5528 57.2909L17.9451 51.5148C18.2231 51.267 17.8849 51.1297 17.5132 51.3775L9.61069 56.3534L6.2086 55.2885C5.46858 55.0575 5.45518 54.5485 6.36263 54.1936L19.6696 49.067C20.2857 48.8359 20.8249 49.2043 20.6239 50.1452V50.1452Z" fill="#EEBC32"/>
<path d="M94 6H26V74H94V6Z" fill="white"/>
<path d="M32.46 10.08H30.08V12.46H32.46V10.08Z" fill="black"/>
<path d="M34.84 10.08H32.46V12.46H34.84V10.08Z" fill="black"/>
<path d="M37.22 10.08H34.84V12.46H37.22V10.08Z" fill="black"/>
<path d="M39.6 10.08H37.22V12.46H39.6V10.08Z" fill="black"/>
<path d="M41.98 10.08H39.6V12.46H41.98V10.08Z" fill="black"/>
<path d="M44.36 10.08H41.98V12.46H44.36V10.08Z" fill="black"/>
<path d="M46.74 10.08H44.36V12.46H46.74V10.08Z" fill="black"/>
<path d="M51.5 10.08H49.12V12.46H51.5V10.08Z" fill="black"/>
<path d="M56.26 10.08H53.88V12.46H56.26V10.08Z" fill="black"/>
<path d="M65.78 10.08H63.4V12.46H65.78V10.08Z" fill="black"/>
<path d="M75.3 10.08H72.92V12.46H75.3V10.08Z" fill="black"/>
<path d="M77.68 10.08H75.3V12.46H77.68V10.08Z" fill="black"/>
<path d="M80.0601 10.08H77.6801V12.46H80.0601V10.08Z" fill="black"/>
<path d="M82.4401 10.08H80.0601V12.46H82.4401V10.08Z" fill="black"/>
<path d="M84.8199 10.08H82.4399V12.46H84.8199V10.08Z" fill="black"/>
<path d="M87.1999 10.08H84.8199V12.46H87.1999V10.08Z" fill="black"/>
<path d="M89.5799 10.08H87.2V12.46H89.5799V10.08Z" fill="black"/>
<path d="M32.46 12.46H30.08V14.84H32.46V12.46Z" fill="black"/>
<path d="M46.74 12.46H44.36V14.84H46.74V12.46Z" fill="black"/>
<path d="M53.88 12.46H51.5V14.84H53.88V12.46Z" fill="black"/>
<path d="M56.26 12.46H53.88V14.84H56.26V12.46Z" fill="black"/>
<path d="M63.4 12.46H61.02V14.84H63.4V12.46Z" fill="black"/>
<path d="M65.78 12.46H63.4V14.84H65.78V12.46Z" fill="black"/>
<path d="M75.3 12.46H72.92V14.84H75.3V12.46Z" fill="black"/>
<path d="M89.5799 12.46H87.2V14.84H89.5799V12.46Z" fill="black"/>
<path d="M32.46 14.84H30.08V17.22H32.46V14.84Z" fill="black"/>
<path d="M37.22 14.84H34.84V17.22H37.22V14.84Z" fill="black"/>
<path d="M39.6 14.84H37.22V17.22H39.6V14.84Z" fill="black"/>
<path d="M41.98 14.84H39.6V17.22H41.98V14.84Z" fill="black"/>
<path d="M46.74 14.84H44.36V17.22H46.74V14.84Z" fill="black"/>
<path d="M53.88 14.84H51.5V17.22H53.88V14.84Z" fill="black"/>
<path d="M56.26 14.84H53.88V17.22H56.26V14.84Z" fill="black"/>
<path d="M63.4 14.84H61.02V17.22H63.4V14.84Z" fill="black"/>
<path d="M65.78 14.84H63.4V17.22H65.78V14.84Z" fill="black"/>
<path d="M75.3 14.84H72.92V17.22H75.3V14.84Z" fill="black"/>
<path d="M80.0601 14.84H77.6801V17.22H80.0601V14.84Z" fill="black"/>
<path d="M82.4401 14.84H80.0601V17.22H82.4401V14.84Z" fill="black"/>
<path d="M84.8199 14.84H82.4399V17.22H84.8199V14.84Z" fill="black"/>
<path d="M89.5799 14.84H87.2V17.22H89.5799V14.84Z" fill="black"/>
<path d="M32.46 17.22H30.08V19.6H32.46V17.22Z" fill="black"/>
<path d="M37.22 17.22H34.84V19.6H37.22V17.22Z" fill="black"/>
<path d="M39.6 17.22H37.22V19.6H39.6V17.22Z" fill="black"/>
<path d="M41.98 17.22H39.6V19.6H41.98V17.22Z" fill="black"/>
<path d="M46.74 17.22H44.36V19.6H46.74V17.22Z" fill="black"/>
<path d="M56.26 17.22H53.88V19.6H56.26V17.22Z" fill="black"/>
<path d="M61.02 17.22H58.64V19.6H61.02V17.22Z" fill="black"/>
<path d="M63.4 17.22H61.02V19.6H63.4V17.22Z" fill="black"/>
<path d="M65.78 17.22H63.4V19.6H65.78V17.22Z" fill="black"/>
<path d="M70.54 17.22H68.16V19.6H70.54V17.22Z" fill="black"/>
<path d="M75.3 17.22H72.92V19.6H75.3V17.22Z" fill="black"/>
<path d="M80.0601 17.22H77.6801V19.6H80.0601V17.22Z" fill="black"/>
<path d="M82.4401 17.22H80.0601V19.6H82.4401V17.22Z" fill="black"/>
<path d="M84.8199 17.22H82.4399V19.6H84.8199V17.22Z" fill="black"/>
<path d="M89.5799 17.22H87.2V19.6H89.5799V17.22Z" fill="black"/>
<path d="M32.46 19.6H30.08V21.98H32.46V19.6Z" fill="black"/>
<path d="M37.22 19.6H34.84V21.98H37.22V19.6Z" fill="black"/>
<path d="M39.6 19.6H37.22V21.98H39.6V19.6Z" fill="black"/>
<path d="M41.98 19.6H39.6V21.98H41.98V19.6Z" fill="black"/>
<path d="M46.74 19.6H44.36V21.98H46.74V19.6Z" fill="black"/>
<path d="M63.4 19.6H61.02V21.98H63.4V19.6Z" fill="black"/>
<path d="M65.78 19.6H63.4V21.98H65.78V19.6Z" fill="black"/>
<path d="M70.54 19.6H68.16V21.98H70.54V19.6Z" fill="black"/>
<path d="M75.3 19.6H72.92V21.98H75.3V19.6Z" fill="black"/>
<path d="M80.0601 19.6H77.6801V21.98H80.0601V19.6Z" fill="black"/>
<path d="M82.4401 19.6H80.0601V21.98H82.4401V19.6Z" fill="black"/>
<path d="M84.8199 19.6H82.4399V21.98H84.8199V19.6Z" fill="black"/>
<path d="M89.5799 19.6H87.2V21.98H89.5799V19.6Z" fill="black"/>
<path d="M32.46 21.98H30.08V24.36H32.46V21.98Z" fill="black"/>
<path d="M46.74 21.98H44.36V24.36H46.74V21.98Z" fill="black"/>
<path d="M53.88 21.98H51.5V24.36H53.88V21.98Z" fill="black"/>
<path d="M58.64 21.98H56.26V24.36H58.64V21.98Z" fill="black"/>
<path d="M61.02 21.98H58.64V24.36H61.02V21.98Z" fill="black"/>
<path d="M63.4 21.98H61.02V24.36H63.4V21.98Z" fill="black"/>
<path d="M65.78 21.98H63.4V24.36H65.78V21.98Z" fill="black"/>
<path d="M70.54 21.98H68.16V24.36H70.54V21.98Z" fill="black"/>
<path d="M75.3 21.98H72.92V24.36H75.3V21.98Z" fill="black"/>
<path d="M89.5799 21.98H87.2V24.36H89.5799V21.98Z" fill="black"/>
<path d="M32.46 24.36H30.08V26.74H32.46V24.36Z" fill="black"/>
<path d="M34.84 24.36H32.46V26.74H34.84V24.36Z" fill="black"/>
<path d="M37.22 24.36H34.84V26.74H37.22V24.36Z" fill="black"/>
<path d="M39.6 24.36H37.22V26.74H39.6V24.36Z" fill="black"/>
<path d="M41.98 24.36H39.6V26.74H41.98V24.36Z" fill="black"/>
<path d="M44.36 24.36H41.98V26.74H44.36V24.36Z" fill="black"/>
<path d="M46.74 24.36H44.36V26.74H46.74V24.36Z" fill="black"/>
<path d="M51.5 24.36H49.12V26.74H51.5V24.36Z" fill="black"/>
<path d="M56.26 24.36H53.88V26.74H56.26V24.36Z" fill="black"/>
<path d="M61.02 24.36H58.64V26.74H61.02V24.36Z" fill="black"/>
<path d="M65.78 24.36H63.4V26.74H65.78V24.36Z" fill="black"/>
<path d="M70.54 24.36H68.16V26.74H70.54V24.36Z" fill="black"/>
<path d="M75.3 24.36H72.92V26.74H75.3V24.36Z" fill="black"/>
<path d="M77.68 24.36H75.3V26.74H77.68V24.36Z" fill="black"/>
<path d="M80.0601 24.36H77.6801V26.74H80.0601V24.36Z" fill="black"/>
<path d="M82.4401 24.36H80.0601V26.74H82.4401V24.36Z" fill="black"/>
<path d="M84.8199 24.36H82.4399V26.74H84.8199V24.36Z" fill="black"/>
<path d="M87.1999 24.36H84.8199V26.74H87.1999V24.36Z" fill="black"/>
<path d="M89.5799 24.36H87.2V26.74H89.5799V24.36Z" fill="black"/>
<path d="M51.5 26.74H49.12V29.12H51.5V26.74Z" fill="black"/>
<path d="M53.88 26.74H51.5V29.12H53.88V26.74Z" fill="black"/>
<path d="M58.64 26.74H56.26V29.12H58.64V26.74Z" fill="black"/>
<path d="M63.4 26.74H61.02V29.12H63.4V26.74Z" fill="black"/>
<path d="M68.16 26.74H65.78V29.12H68.16V26.74Z" fill="black"/>
<path d="M70.54 26.74H68.16V29.12H70.54V26.74Z" fill="black"/>
<path d="M32.46 29.12H30.08V31.5H32.46V29.12Z" fill="black"/>
<path d="M34.84 29.12H32.46V31.5H34.84V29.12Z" fill="black"/>
<path d="M39.6 29.12H37.22V31.5H39.6V29.12Z" fill="black"/>
<path d="M41.98 29.12H39.6V31.5H41.98V29.12Z" fill="black"/>
<path d="M46.74 29.12H44.36V31.5H46.74V29.12Z" fill="black"/>
<path d="M53.88 29.12H51.5V31.5H53.88V29.12Z" fill="black"/>
<path d="M58.64 29.12H56.26V31.5H58.64V29.12Z" fill="black"/>
<path d="M61.02 29.12H58.64V31.5H61.02V29.12Z" fill="black"/>
<path d="M65.78 29.12H63.4V31.5H65.78V29.12Z" fill="black"/>
<path d="M70.54 29.12H68.16V31.5H70.54V29.12Z" fill="black"/>
<path d="M75.3 29.12H72.92V31.5H75.3V29.12Z" fill="black"/>
<path d="M89.5799 29.12H87.2V31.5H89.5799V29.12Z" fill="black"/>
<path d="M32.46 31.5H30.08V33.88H32.46V31.5Z" fill="black"/>
<path d="M37.22 31.5H34.84V33.88H37.22V31.5Z" fill="black"/>
<path d="M41.98 31.5H39.6V33.88H41.98V31.5Z" fill="black"/>
<path d="M44.36 31.5H41.98V33.88H44.36V31.5Z" fill="black"/>
<path d="M51.5 31.5H49.12V33.88H51.5V31.5Z" fill="black"/>
<path d="M56.26 31.5H53.88V33.88H56.26V31.5Z" fill="black"/>
<path d="M58.64 31.5H56.26V33.88H58.64V31.5Z" fill="black"/>
<path d="M65.78 31.5H63.4V33.88H65.78V31.5Z" fill="black"/>
<path d="M68.16 31.5H65.78V33.88H68.16V31.5Z" fill="black"/>
<path d="M70.54 31.5H68.16V33.88H70.54V31.5Z" fill="black"/>
<path d="M72.92 31.5H70.54V33.88H72.92V31.5Z" fill="black"/>
<path d="M77.68 31.5H75.3V33.88H77.68V31.5Z" fill="black"/>
<path d="M80.0601 31.5H77.6801V33.88H80.0601V31.5Z" fill="black"/>
<path d="M82.4401 31.5H80.0601V33.88H82.4401V31.5Z" fill="black"/>
<path d="M84.8199 31.5H82.4399V33.88H84.8199V31.5Z" fill="black"/>
<path d="M87.1999 31.5H84.8199V33.88H87.1999V31.5Z" fill="black"/>
<path d="M37.22 33.88H34.84V36.26H37.22V33.88Z" fill="black"/>
<path d="M41.98 33.88H39.6V36.26H41.98V33.88Z" fill="black"/>
<path d="M46.74 33.88H44.36V36.26H46.74V33.88Z" fill="black"/>
<path d="M49.12 33.88H46.74V36.26H49.12V33.88Z" fill="black"/>
<path d="M51.5 33.88H49.12V36.26H51.5V33.88Z" fill="black"/>
<path d="M53.88 33.88H51.5V36.26H53.88V33.88Z" fill="black"/>
<path d="M58.64 33.88H56.26V36.26H58.64V33.88Z" fill="black"/>
<path d="M63.4 33.88H61.02V36.26H63.4V33.88Z" fill="black"/>
<path d="M68.16 33.88H65.78V36.26H68.16V33.88Z" fill="black"/>
<path d="M70.54 33.88H68.16V36.26H70.54V33.88Z" fill="black"/>
<path d="M75.3 33.88H72.92V36.26H75.3V33.88Z" fill="black"/>
<path d="M77.68 33.88H75.3V36.26H77.68V33.88Z" fill="black"/>
<path d="M82.4401 33.88H80.0601V36.26H82.4401V33.88Z" fill="black"/>
<path d="M89.5799 33.88H87.2V36.26H89.5799V33.88Z" fill="black"/>
<path d="M32.46 36.26H30.08V38.64H32.46V36.26Z" fill="black"/>
<path d="M39.6 36.26H37.22V38.64H39.6V36.26Z" fill="black"/>
<path d="M44.36 36.26H41.98V38.64H44.36V36.26Z" fill="black"/>
<path d="M51.5 36.26H49.12V38.64H51.5V36.26Z" fill="black"/>
<path d="M58.64 36.26H56.26V38.64H58.64V36.26Z" fill="black"/>
<path d="M61.02 36.26H58.64V38.64H61.02V36.26Z" fill="black"/>
<path d="M70.54 36.26H68.16V38.64H70.54V36.26Z" fill="black"/>
<path d="M77.68 36.26H75.3V38.64H77.68V36.26Z" fill="black"/>
<path d="M82.4401 36.26H80.0601V38.64H82.4401V36.26Z" fill="black"/>
<path d="M84.8199 36.26H82.4399V38.64H84.8199V36.26Z" fill="black"/>
<path d="M87.1999 36.26H84.8199V38.64H87.1999V36.26Z" fill="black"/>
<path d="M89.5799 36.26H87.2V38.64H89.5799V36.26Z" fill="black"/>
<path d="M32.46 38.64H30.08V41.02H32.46V38.64Z" fill="black"/>
<path d="M34.84 38.64H32.46V41.02H34.84V38.64Z" fill="black"/>
<path d="M41.98 38.64H39.6V41.02H41.98V38.64Z" fill="black"/>
<path d="M44.36 38.64H41.98V41.02H44.36V38.64Z" fill="black"/>
<path d="M46.74 38.64H44.36V41.02H46.74V38.64Z" fill="black"/>
<path d="M49.12 38.64H46.74V41.02H49.12V38.64Z" fill="black"/>
<path d="M53.88 38.64H51.5V41.02H53.88V38.64Z" fill="black"/>
<path d="M56.26 38.64H53.88V41.02H56.26V38.64Z" fill="black"/>
<path d="M61.02 38.64H58.64V41.02H61.02V38.64Z" fill="black"/>
<path d="M75.3 38.64H72.92V41.02H75.3V38.64Z" fill="black"/>
<path d="M89.5799 38.64H87.2V41.02H89.5799V38.64Z" fill="black"/>
<path d="M32.46 41.02H30.08V43.4H32.46V41.02Z" fill="black"/>
<path d="M41.98 41.02H39.6V43.4H41.98V41.02Z" fill="black"/>
<path d="M49.12 41.02H46.74V43.4H49.12V41.02Z" fill="black"/>
<path d="M51.5 41.02H49.12V43.4H51.5V41.02Z" fill="black"/>
<path d="M56.26 41.02H53.88V43.4H56.26V41.02Z" fill="black"/>
<path d="M58.64 41.02H56.26V43.4H58.64V41.02Z" fill="black"/>
<path d="M65.78 41.02H63.4V43.4H65.78V41.02Z" fill="black"/>
<path d="M68.16 41.02H65.78V43.4H68.16V41.02Z" fill="black"/>
<path d="M70.54 41.02H68.16V43.4H70.54V41.02Z" fill="black"/>
<path d="M72.92 41.02H70.54V43.4H72.92V41.02Z" fill="black"/>
<path d="M80.0601 41.02H77.6801V43.4H80.0601V41.02Z" fill="black"/>
<path d="M87.1999 41.02H84.8199V43.4H87.1999V41.02Z" fill="black"/>
<path d="M32.46 43.4H30.08V45.78H32.46V43.4Z" fill="black"/>
<path d="M34.84 43.4H32.46V45.78H34.84V43.4Z" fill="black"/>
<path d="M41.98 43.4H39.6V45.78H41.98V43.4Z" fill="black"/>
<path d="M44.36 43.4H41.98V45.78H44.36V43.4Z" fill="black"/>
<path d="M46.74 43.4H44.36V45.78H46.74V43.4Z" fill="black"/>
<path d="M49.12 43.4H46.74V45.78H49.12V43.4Z" fill="black"/>
<path d="M51.5 43.4H49.12V45.78H51.5V43.4Z" fill="black"/>
<path d="M56.26 43.4H53.88V45.78H56.26V43.4Z" fill="black"/>
<path d="M63.4 43.4H61.02V45.78H63.4V43.4Z" fill="black"/>
<path d="M68.16 43.4H65.78V45.78H68.16V43.4Z" fill="black"/>
<path d="M72.92 43.4H70.54V45.78H72.92V43.4Z" fill="black"/>
<path d="M75.3 43.4H72.92V45.78H75.3V43.4Z" fill="black"/>
<path d="M80.0601 43.4H77.6801V45.78H80.0601V43.4Z" fill="black"/>
<path d="M82.4401 43.4H80.0601V45.78H82.4401V43.4Z" fill="black"/>
<path d="M84.8199 43.4H82.4399V45.78H84.8199V43.4Z" fill="black"/>
<path d="M87.1999 43.4H84.8199V45.78H87.1999V43.4Z" fill="black"/>
<path d="M89.5799 43.4H87.2V45.78H89.5799V43.4Z" fill="black"/>
<path d="M32.46 45.78H30.08V48.16H32.46V45.78Z" fill="black"/>
<path d="M41.98 45.78H39.6V48.16H41.98V45.78Z" fill="black"/>
<path d="M53.88 45.78H51.5V48.16H53.88V45.78Z" fill="black"/>
<path d="M56.26 45.78H53.88V48.16H56.26V45.78Z" fill="black"/>
<path d="M70.54 45.78H68.16V48.16H70.54V45.78Z" fill="black"/>
<path d="M72.92 45.78H70.54V48.16H72.92V45.78Z" fill="black"/>
<path d="M77.68 45.78H75.3V48.16H77.68V45.78Z" fill="black"/>
<path d="M82.4401 45.78H80.0601V48.16H82.4401V45.78Z" fill="black"/>
<path d="M84.8199 45.78H82.4399V48.16H84.8199V45.78Z" fill="black"/>
<path d="M89.5799 45.78H87.2V48.16H89.5799V45.78Z" fill="black"/>
<path d="M32.46 48.16H30.08V50.54H32.46V48.16Z" fill="black"/>
<path d="M37.22 48.16H34.84V50.54H37.22V48.16Z" fill="black"/>
<path d="M39.6 48.16H37.22V50.54H39.6V48.16Z" fill="black"/>
<path d="M41.98 48.16H39.6V50.54H41.98V48.16Z" fill="black"/>
<path d="M46.74 48.16H44.36V50.54H46.74V48.16Z" fill="black"/>
<path d="M49.12 48.16H46.74V50.54H49.12V48.16Z" fill="black"/>
<path d="M51.5 48.16H49.12V50.54H51.5V48.16Z" fill="black"/>
<path d="M61.02 48.16H58.64V50.54H61.02V48.16Z" fill="black"/>
<path d="M63.4 48.16H61.02V50.54H63.4V48.16Z" fill="black"/>
<path d="M65.78 48.16H63.4V50.54H65.78V48.16Z" fill="black"/>
<path d="M70.54 48.16H68.16V50.54H70.54V48.16Z" fill="black"/>
<path d="M72.92 48.16H70.54V50.54H72.92V48.16Z" fill="black"/>
<path d="M75.3 48.16H72.92V50.54H75.3V48.16Z" fill="black"/>
<path d="M77.68 48.16H75.3V50.54H77.68V48.16Z" fill="black"/>
<path d="M80.0601 48.16H77.6801V50.54H80.0601V48.16Z" fill="black"/>
<path d="M84.8199 48.16H82.4399V50.54H84.8199V48.16Z" fill="black"/>
<path d="M87.1999 48.16H84.8199V50.54H87.1999V48.16Z" fill="black"/>
<path d="M51.5 50.54H49.12V52.92H51.5V50.54Z" fill="black"/>
<path d="M53.88 50.54H51.5V52.92H53.88V50.54Z" fill="black"/>
<path d="M56.26 50.54H53.88V52.92H56.26V50.54Z" fill="black"/>
<path d="M63.4 50.54H61.02V52.92H63.4V50.54Z" fill="black"/>
<path d="M68.16 50.54H65.78V52.92H68.16V50.54Z" fill="black"/>
<path d="M70.54 50.54H68.16V52.92H70.54V50.54Z" fill="black"/>
<path d="M80.0601 50.54H77.6801V52.92H80.0601V50.54Z" fill="black"/>
<path d="M84.8199 50.54H82.4399V52.92H84.8199V50.54Z" fill="black"/>
<path d="M87.1999 50.54H84.8199V52.92H87.1999V50.54Z" fill="black"/>
<path d="M32.46 52.92H30.08V55.3H32.46V52.92Z" fill="black"/>
<path d="M34.84 52.92H32.46V55.3H34.84V52.92Z" fill="black"/>
<path d="M37.22 52.92H34.84V55.3H37.22V52.92Z" fill="black"/>
<path d="M39.6 52.92H37.22V55.3H39.6V52.92Z" fill="black"/>
<path d="M41.98 52.92H39.6V55.3H41.98V52.92Z" fill="black"/>
<path d="M44.36 52.92H41.98V55.3H44.36V52.92Z" fill="black"/>
<path d="M46.74 52.92H44.36V55.3H46.74V52.92Z" fill="black"/>
<path d="M53.88 52.92H51.5V55.3H53.88V52.92Z" fill="black"/>
<path d="M56.26 52.92H53.88V55.3H56.26V52.92Z" fill="black"/>
<path d="M58.64 52.92H56.26V55.3H58.64V52.92Z" fill="black"/>
<path d="M70.54 52.92H68.16V55.3H70.54V52.92Z" fill="black"/>
<path d="M75.3 52.92H72.92V55.3H75.3V52.92Z" fill="black"/>
<path d="M80.0601 52.92H77.6801V55.3H80.0601V52.92Z" fill="black"/>
<path d="M89.5799 52.92H87.2V55.3H89.5799V52.92Z" fill="black"/>
<path d="M32.46 55.3H30.08V57.68H32.46V55.3Z" fill="black"/>
<path d="M46.74 55.3H44.36V57.68H46.74V55.3Z" fill="black"/>
<path d="M56.26 55.3H53.88V57.68H56.26V55.3Z" fill="black"/>
<path d="M63.4 55.3H61.02V57.68H63.4V55.3Z" fill="black"/>
<path d="M68.16 55.3H65.78V57.68H68.16V55.3Z" fill="black"/>
<path d="M70.54 55.3H68.16V57.68H70.54V55.3Z" fill="black"/>
<path d="M80.0601 55.3H77.6801V57.68H80.0601V55.3Z" fill="black"/>
<path d="M32.46 57.68H30.08V60.06H32.46V57.68Z" fill="black"/>
<path d="M37.22 57.68H34.84V60.06H37.22V57.68Z" fill="black"/>
<path d="M39.6 57.68H37.22V60.06H39.6V57.68Z" fill="black"/>
<path d="M41.98 57.68H39.6V60.06H41.98V57.68Z" fill="black"/>
<path d="M46.74 57.68H44.36V60.06H46.74V57.68Z" fill="black"/>
<path d="M51.5 57.68H49.12V60.06H51.5V57.68Z" fill="black"/>
<path d="M53.88 57.68H51.5V60.06H53.88V57.68Z" fill="black"/>
<path d="M65.78 57.68H63.4V60.06H65.78V57.68Z" fill="black"/>
<path d="M68.16 57.68H65.78V60.06H68.16V57.68Z" fill="black"/>
<path d="M70.54 57.68H68.16V60.06H70.54V57.68Z" fill="black"/>
<path d="M72.92 57.68H70.54V60.06H72.92V57.68Z" fill="black"/>
<path d="M75.3 57.68H72.92V60.06H75.3V57.68Z" fill="black"/>
<path d="M77.68 57.68H75.3V60.06H77.68V57.68Z" fill="black"/>
<path d="M80.0601 57.68H77.6801V60.06H80.0601V57.68Z" fill="black"/>
<path d="M87.1999 57.68H84.8199V60.06H87.1999V57.68Z" fill="black"/>
<path d="M32.46 60.06H30.08V62.44H32.46V60.06Z" fill="black"/>
<path d="M37.22 60.06H34.84V62.44H37.22V60.06Z" fill="black"/>
<path d="M39.6 60.06H37.22V62.44H39.6V60.06Z" fill="black"/>
<path d="M41.98 60.06H39.6V62.44H41.98V60.06Z" fill="black"/>
<path d="M46.74 60.06H44.36V62.44H46.74V60.06Z" fill="black"/>
<path d="M51.5 60.06H49.12V62.44H51.5V60.06Z" fill="black"/>
<path d="M56.26 60.06H53.88V62.44H56.26V60.06Z" fill="black"/>
<path d="M58.64 60.06H56.26V62.44H58.64V60.06Z" fill="black"/>
<path d="M65.78 60.06H63.4V62.44H65.78V60.06Z" fill="black"/>
<path d="M68.16 60.06H65.78V62.44H68.16V60.06Z" fill="black"/>
<path d="M70.54 60.06H68.16V62.44H70.54V60.06Z" fill="black"/>
<path d="M75.3 60.06H72.92V62.44H75.3V60.06Z" fill="black"/>
<path d="M87.1999 60.06H84.8199V62.44H87.1999V60.06Z" fill="black"/>
<path d="M89.5799 60.06H87.2V62.44H89.5799V60.06Z" fill="black"/>
<path d="M32.46 62.44H30.08V64.82H32.46V62.44Z" fill="black"/>
<path d="M37.22 62.44H34.84V64.82H37.22V62.44Z" fill="black"/>
<path d="M39.6 62.44H37.22V64.82H39.6V62.44Z" fill="black"/>
<path d="M41.98 62.44H39.6V64.82H41.98V62.44Z" fill="black"/>
<path d="M46.74 62.44H44.36V64.82H46.74V62.44Z" fill="black"/>
<path d="M53.88 62.44H51.5V64.82H53.88V62.44Z" fill="black"/>
<path d="M58.64 62.44H56.26V64.82H58.64V62.44Z" fill="black"/>
<path d="M65.78 62.44H63.4V64.82H65.78V62.44Z" fill="black"/>
<path d="M68.16 62.44H65.78V64.82H68.16V62.44Z" fill="black"/>
<path d="M72.92 62.44H70.54V64.82H72.92V62.44Z" fill="black"/>
<path d="M80.0601 62.44H77.6801V64.82H80.0601V62.44Z" fill="black"/>
<path d="M82.4401 62.44H80.0601V64.82H82.4401V62.44Z" fill="black"/>
<path d="M84.8199 62.44H82.4399V64.82H84.8199V62.44Z" fill="black"/>
<path d="M87.1999 62.44H84.8199V64.82H87.1999V62.44Z" fill="black"/>
<path d="M89.5799 62.44H87.2V64.82H89.5799V62.44Z" fill="black"/>
<path d="M32.46 64.82H30.08V67.2H32.46V64.82Z" fill="black"/>
<path d="M46.74 64.82H44.36V67.2H46.74V64.82Z" fill="black"/>
<path d="M51.5 64.82H49.12V67.2H51.5V64.82Z" fill="black"/>
<path d="M56.26 64.82H53.88V67.2H56.26V64.82Z" fill="black"/>
<path d="M61.02 64.82H58.64V67.2H61.02V64.82Z" fill="black"/>
<path d="M65.78 64.82H63.4V67.2H65.78V64.82Z" fill="black"/>
<path d="M77.68 64.82H75.3V67.2H77.68V64.82Z" fill="black"/>
<path d="M80.0601 64.82H77.6801V67.2H80.0601V64.82Z" fill="black"/>
<path d="M84.8199 64.82H82.4399V67.2H84.8199V64.82Z" fill="black"/>
<path d="M87.1999 64.82H84.8199V67.2H87.1999V64.82Z" fill="black"/>
<path d="M89.5799 64.82H87.2V67.2H89.5799V64.82Z" fill="black"/>
<path d="M32.46 67.2H30.08V69.58H32.46V67.2Z" fill="black"/>
<path d="M34.84 67.2H32.46V69.58H34.84V67.2Z" fill="black"/>
<path d="M37.22 67.2H34.84V69.58H37.22V67.2Z" fill="black"/>
<path d="M39.6 67.2H37.22V69.58H39.6V67.2Z" fill="black"/>
<path d="M41.98 67.2H39.6V69.58H41.98V67.2Z" fill="black"/>
<path d="M44.36 67.2H41.98V69.58H44.36V67.2Z" fill="black"/>
<path d="M46.74 67.2H44.36V69.58H46.74V67.2Z" fill="black"/>
<path d="M51.5 67.2H49.12V69.58H51.5V67.2Z" fill="black"/>
<path d="M56.26 67.2H53.88V69.58H56.26V67.2Z" fill="black"/>
<path d="M58.64 67.2H56.26V69.58H58.64V67.2Z" fill="black"/>
<path d="M70.54 67.2H68.16V69.58H70.54V67.2Z" fill="black"/>
<path d="M72.92 67.2H70.54V69.58H72.92V67.2Z" fill="black"/>
<path d="M82.4401 67.2H80.0601V69.58H82.4401V67.2Z" fill="black"/>
<path d="M89.5799 67.2H87.2V69.58H89.5799V67.2Z" fill="black"/>
</svg>
